STARTFONT 2.1
COMMENT 96.12.27 This Lao-Font was created & modified
COMMENT by Sihattha Rasphone <sihattha@jaist.ac.jp>
COMMENT LaoSimple and LRT Typing was programed by K.Handa <handa@etl.go.jp>
COMMENT 97.06.19 CHARSET_REGISTRY field changed by K. Handa <handa@etl.go.jp>
COMMENT 
FONT -misc-fixed-medium-r-normal--16-160-72-72-m-80-MuleLao-1
SIZE 16 72 72
FONTBOUNDINGBOX 8 16 0 -3
STARTPROPERTIES 25
FOUNDRY "misc"
FAMILY_NAME "fixed"
WEIGHT_NAME "medium"
SLANT "r"
SETWIDTH_NAME "normal"
ADD_STYLE_NAME ""
PIXEL_SIZE 16
POINT_SIZE 160
RESOLUTION_X 72
RESOLUTION_Y 72 
SPACING "m"
AVERAGE_WIDTH 80
CHARSET_REGISTRY "MuleLao"
CHARSET_ENCODING "1"
STRIKEOUT_ASCENT 13
STRIKEOUT_DESCENT 3
X_HEIGHT 8
FACE_NAME "Lao typewriter (16dots)"
COPYRIGHT "Public domain font.  Share and enjoy."
FONT_ASCENT 13
FONT_DESCENT 3
DEFAULT_CHAR 32
_MULE_RELATIVE_COMPOSE 9
_MULE_BASELINE_OFFSET 1
_MULE_DEFAULT_ASCENT 10
ENDPROPERTIES
CHARS 191
STARTCHAR C040
ENCODING 32
SWIDTH 500 0
DWIDTH 8 0
BBX 8 16 0 -3
BITMAP
00
00
00
00
00
00
00
00
00
00
00
00
00
00
00
00
ENDCHAR
STARTCHAR !
ENCODING 33
SWIDTH 500 0
DWIDTH 8 0
BBX 8 16 0 -3
BITMAP
00
00
00
08
08
08
08
08
08
08
00
08
08
00
00
00
ENDCHAR
STARTCHAR "
ENCODING 34
SWIDTH 500 0
DWIDTH 8 0
BBX 8 16 0 -3
BITMAP
00
66
22
22
44
00
00
00
00
00
00
00
00
00
00
00
ENDCHAR
STARTCHAR #
ENCODING 35
SWIDTH 500 0
DWIDTH 8 0
BBX 8 16 0 -3
BITMAP
00
00
00
12
12
12
7e
24
24
7e
48
48
48
00
00
00
ENDCHAR
STARTCHAR $
ENCODING 36
SWIDTH 500 0
DWIDTH 8 0
BBX 8 16 0 -3
BITMAP
00
00
00
08
3e
49
48
38
0e
09
49
3e
08
00
00
00
ENDCHAR
STARTCHAR %
ENCODING 37
SWIDTH 500 0
DWIDTH 8 0
BBX 8 16 0 -3
BITMAP
00
00
00
31
4a
4a
34
08
08
16
29
29
46
00
00
00
ENDCHAR
STARTCHAR &
ENCODING 38
SWIDTH 500 0
DWIDTH 8 0
BBX 8 16 0 -3
BITMAP
00
00
00
1c
22
22
22
1c
39
45
42
46
39
00
00
00
ENDCHAR
STARTCHAR '
ENCODING 39
SWIDTH 500 0
DWIDTH 8 0
BBX 8 16 0 -3
BITMAP
00
18
08
08
10
00
00
00
00
00
00
00
00
00
00
00
ENDCHAR
STARTCHAR (
ENCODING 40
SWIDTH 500 0
DWIDTH 8 0
BBX 8 16 0 -3
BITMAP
00
00
04
08
08
10
10
10
10
10
10
08
08
04
00
00
ENDCHAR
STARTCHAR )
ENCODING 41
SWIDTH 500 0
DWIDTH 8 0
BBX 8 16 0 -3
BITMAP
00
00
20
10
10
08
08
08
08
08
08
10
10
20
00
00
ENDCHAR
STARTCHAR *
ENCODING 42
SWIDTH 500 0
DWIDTH 8 0
BBX 8 16 0 -3
BITMAP
00
00
00
00
00
08
49
2a
1c
2a
49
08
00
00
00
00
ENDCHAR
STARTCHAR +
ENCODING 43
SWIDTH 500 0
DWIDTH 8 0
BBX 8 16 0 -3
BITMAP
00
00
00
00
00
08
08
08
7f
08
08
08
00
00
00
00
ENDCHAR
STARTCHAR ,
ENCODING 44
SWIDTH 500 0
DWIDTH 8 0
BBX 8 16 0 -3
BITMAP
00
00
00
00
00
00
00
00
00
00
00
18
08
08
10
00
ENDCHAR
STARTCHAR -
ENCODING 45
SWIDTH 500 0
DWIDTH 8 0
BBX 8 16 0 -3
BITMAP
00
00
00
00
00
00
00
00
7e
00
00
00
00
00
00
00
ENDCHAR
STARTCHAR .
ENCODING 46
SWIDTH 500 0
DWIDTH 8 0
BBX 8 16 0 -3
BITMAP
00
00
00
00
00
00
00
00
00
00
00
18
18
00
00
00
ENDCHAR
STARTCHAR /
ENCODING 47
SWIDTH 500 0
DWIDTH 8 0
BBX 8 16 0 -3
BITMAP
00
00
00
02
02
04
08
08
10
10
20
40
40
00
00
00
ENDCHAR
STARTCHAR 0
ENCODING 48
SWIDTH 500 0
DWIDTH 8 0
BBX 8 16 0 -3
BITMAP
00
00
00
18
24
42
42
42
42
42
42
24
18
00
00
00
ENDCHAR
STARTCHAR 1
ENCODING 49
SWIDTH 500 0
DWIDTH 8 0
BBX 8 16 0 -3
BITMAP
00
00
00
08
18
28
08
08
08
08
08
08
3e
00
00
00
ENDCHAR
STARTCHAR 2
ENCODING 50
SWIDTH 500 0
DWIDTH 8 0
BBX 8 16 0 -3
BITMAP
00
00
00
3c
42
42
02
0c
10
20
40
40
7e
00
00
00
ENDCHAR
STARTCHAR 3
ENCODING 51
SWIDTH 500 0
DWIDTH 8 0
BBX 8 16 0 -3
BITMAP
00
00
00
3c
42
42
02
1c
02
02
42
42
3c
00
00
00
ENDCHAR
STARTCHAR 4
ENCODING 52
SWIDTH 500 0
DWIDTH 8 0
BBX 8 16 0 -3
BITMAP
00
00
00
04
0c
14
24
44
44
7e
04
04
04
00
00
00
ENDCHAR
STARTCHAR 5
ENCODING 53
SWIDTH 500 0
DWIDTH 8 0
BBX 8 16 0 -3
BITMAP
00
00
00
7e
40
40
40
7c
02
02
02
42
3c
00
00
00
ENDCHAR
STARTCHAR 6
ENCODING 54
SWIDTH 500 0
DWIDTH 8 0
BBX 8 16 0 -3
BITMAP
00
00
00
1c
20
40
40
7c
42
42
42
42
3c
00
00
00
ENDCHAR
STARTCHAR 7
ENCODING 55
SWIDTH 500 0
DWIDTH 8 0
BBX 8 16 0 -3
BITMAP
00
00
00
7e
02
02
04
04
04
08
08
08
08
00
00
00
ENDCHAR
STARTCHAR 8
ENCODING 56
SWIDTH 500 0
DWIDTH 8 0
BBX 8 16 0 -3
BITMAP
00
00
00
3c
42
42
42
3c
42
42
42
42
3c
00
00
00
ENDCHAR
STARTCHAR 9
ENCODING 57
SWIDTH 500 0
DWIDTH 8 0
BBX 8 16 0 -3
BITMAP
00
00
00
3c
42
42
42
3e
02
02
02
04
38
00
00
00
ENDCHAR
STARTCHAR :
ENCODING 58
SWIDTH 500 0
DWIDTH 8 0
BBX 8 16 0 -3
BITMAP
00
00
00
00
00
18
18
00
00
00
18
18
00
00
00
00
ENDCHAR
STARTCHAR ;
ENCODING 59
SWIDTH 500 0
DWIDTH 8 0
BBX 8 16 0 -3
BITMAP
00
00
00
00
00
18
18
00
00
00
18
08
08
10
00
00
ENDCHAR
STARTCHAR <
ENCODING 60
SWIDTH 500 0
DWIDTH 8 0
BBX 8 16 0 -3
BITMAP
00
00
00
00
02
04
08
10
20
10
08
04
02
00
00
00
ENDCHAR
STARTCHAR =
ENCODING 61
SWIDTH 500 0
DWIDTH 8 0
BBX 8 16 0 -3
BITMAP
00
00
00
00
00
00
7e
00
00
00
7e
00
00
00
00
00
ENDCHAR
STARTCHAR >
ENCODING 62
SWIDTH 500 0
DWIDTH 8 0
BBX 8 16 0 -3
BITMAP
00
00
00
00
40
20
10
08
04
08
10
20
40
00
00
00
ENDCHAR
STARTCHAR ?
ENCODING 63
SWIDTH 500 0
DWIDTH 8 0
BBX 8 16 0 -3
BITMAP
00
00
00
3c
42
42
02
04
08
08
00
08
08
00
00
00
ENDCHAR
STARTCHAR @
ENCODING 64
SWIDTH 500 0
DWIDTH 8 0
BBX 8 16 0 -3
BITMAP
00
00
00
1c
22
4a
56
52
52
52
4e
20
1e
00
00
00
ENDCHAR
STARTCHAR A
ENCODING 65
SWIDTH 500 0
DWIDTH 8 0
BBX 8 16 0 -3
BITMAP
00
00
00
18
24
24
42
42
7e
42
42
42
42
00
00
00
ENDCHAR
STARTCHAR B
ENCODING 66
SWIDTH 500 0
DWIDTH 8 0
BBX 8 16 0 -3
BITMAP
00
00
00
7c
42
42
42
7c
42
42
42
42
7c
00
00
00
ENDCHAR
STARTCHAR C
ENCODING 67
SWIDTH 500 0
DWIDTH 8 0
BBX 8 16 0 -3
BITMAP
00
00
00
3c
42
42
40
40
40
40
42
42
3c
00
00
00
ENDCHAR
STARTCHAR D
ENCODING 68
SWIDTH 500 0
DWIDTH 8 0
BBX 8 16 0 -3
BITMAP
00
00
00
78
44
42
42
42
42
42
42
44
78
00
00
00
ENDCHAR
STARTCHAR E
ENCODING 69
SWIDTH 500 0
DWIDTH 8 0
BBX 8 16 0 -3
BITMAP
00
00
00
7e
40
40
40
7c
40
40
40
40
7e
00
00
00
ENDCHAR
STARTCHAR F
ENCODING 70
SWIDTH 500 0
DWIDTH 8 0
BBX 8 16 0 -3
BITMAP
00
00
00
7e
40
40
40
7c
40
40
40
40
40
00
00
00
ENDCHAR
STARTCHAR G
ENCODING 71
SWIDTH 500 0
DWIDTH 8 0
BBX 8 16 0 -3
BITMAP
00
00
00
3c
42
42
40
40
4e
42
42
46
3a
00
00
00
ENDCHAR
STARTCHAR H
ENCODING 72
SWIDTH 500 0
DWIDTH 8 0
BBX 8 16 0 -3
BITMAP
00
00
00
42
42
42
42
7e
42
42
42
42
42
00
00
00
ENDCHAR
STARTCHAR I
ENCODING 73
SWIDTH 500 0
DWIDTH 8 0
BBX 8 16 0 -3
BITMAP
00
00
00
3e
08
08
08
08
08
08
08
08
3e
00
00
00
ENDCHAR
STARTCHAR J
ENCODING 74
SWIDTH 500 0
DWIDTH 8 0
BBX 8 16 0 -3
BITMAP
00
00
00
1f
04
04
04
04
04
04
44
44
38
00
00
00
ENDCHAR
STARTCHAR K
ENCODING 75
SWIDTH 500 0
DWIDTH 8 0
BBX 8 16 0 -3
BITMAP
00
00
00
42
44
48
50
60
60
50
48
44
42
00
00
00
ENDCHAR
STARTCHAR L
ENCODING 76
SWIDTH 500 0
DWIDTH 8 0
BBX 8 16 0 -3
BITMAP
00
00
00
40
40
40
40
40
40
40
40
40
7e
00
00
00
ENDCHAR
STARTCHAR M
ENCODING 77
SWIDTH 500 0
DWIDTH 8 0
BBX 8 16 0 -3
BITMAP
00
00
00
42
42
66
66
5a
5a
42
42
42
42
00
00
00
ENDCHAR
STARTCHAR N
ENCODING 78
SWIDTH 500 0
DWIDTH 8 0
BBX 8 16 0 -3
BITMAP
00
00
00
42
62
62
52
52
4a
4a
46
46
42
00
00
00
ENDCHAR
STARTCHAR O
ENCODING 79
SWIDTH 500 0
DWIDTH 8 0
BBX 8 16 0 -3
BITMAP
00
00
00
3c
42
42
42
42
42
42
42
42
3c
00
00
00
ENDCHAR
STARTCHAR P
ENCODING 80
SWIDTH 500 0
DWIDTH 8 0
BBX 8 16 0 -3
BITMAP
00
00
00
7c
42
42
42
7c
40
40
40
40
40
00
00
00
ENDCHAR
STARTCHAR Q
ENCODING 81
SWIDTH 500 0
DWIDTH 8 0
BBX 8 16 0 -3
BITMAP
00
00
00
3c
42
42
42
42
42
42
5a
66
3c
03
00
00
ENDCHAR
STARTCHAR R
ENCODING 82
SWIDTH 500 0
DWIDTH 8 0
BBX 8 16 0 -3
BITMAP
00
00
00
7c
42
42
42
7c
48
44
44
42
42
00
00
00
ENDCHAR
STARTCHAR S
ENCODING 83
SWIDTH 500 0
DWIDTH 8 0
BBX 8 16 0 -3
BITMAP
00
00
00
3c
42
42
40
30
0c
02
42
42
3c
00
00
00
ENDCHAR
STARTCHAR T
ENCODING 84
SWIDTH 500 0
DWIDTH 8 0
BBX 8 16 0 -3
BITMAP
00
00
00
7f
08
08
08
08
08
08
08
08
08
00
00
00
ENDCHAR
STARTCHAR U
ENCODING 85
SWIDTH 500 0
DWIDTH 8 0
BBX 8 16 0 -3
BITMAP
00
00
00
42
42
42
42
42
42
42
42
42
3c
00
00
00
ENDCHAR
STARTCHAR V
ENCODING 86
SWIDTH 500 0
DWIDTH 8 0
BBX 8 16 0 -3
BITMAP
00
00
00
41
41
41
22
22
22
14
14
08
08
00
00
00
ENDCHAR
STARTCHAR W
ENCODING 87
SWIDTH 500 0
DWIDTH 8 0
BBX 8 16 0 -3
BITMAP
00
00
00
42
42
42
42
5a
5a
66
66
42
42
00
00
00
ENDCHAR
STARTCHAR X
ENCODING 88
SWIDTH 500 0
DWIDTH 8 0
BBX 8 16 0 -3
BITMAP
00
00
00
42
42
24
24
18
18
24
24
42
42
00
00
00
ENDCHAR
STARTCHAR Y
ENCODING 89
SWIDTH 500 0
DWIDTH 8 0
BBX 8 16 0 -3
BITMAP
00
00
00
41
41
22
22
14
08
08
08
08
08
00
00
00
ENDCHAR
STARTCHAR Z
ENCODING 90
SWIDTH 500 0
DWIDTH 8 0
BBX 8 16 0 -3
BITMAP
00
00
00
7e
02
02
04
08
10
20
40
40
7e
00
00
00
ENDCHAR
STARTCHAR [
ENCODING 91
SWIDTH 500 0
DWIDTH 8 0
BBX 8 16 0 -3
BITMAP
00
00
0e
08
08
08
08
08
08
08
08
08
08
0e
00
00
ENDCHAR
STARTCHAR \
ENCODING 92
SWIDTH 500 0
DWIDTH 8 0
BBX 8 16 0 -3
BITMAP
00
00
00
40
40
20
10
10
08
08
04
02
02
00
00
00
ENDCHAR
STARTCHAR ]
ENCODING 93
SWIDTH 500 0
DWIDTH 8 0
BBX 8 16 0 -3
BITMAP
00
00
70
10
10
10
10
10
10
10
10
10
10
70
00
00
ENDCHAR
STARTCHAR ^
ENCODING 94
SWIDTH 500 0
DWIDTH 8 0
BBX 8 16 0 -3
BITMAP
00
18
24
42
00
00
00
00
00
00
00
00
00
00
00
00
ENDCHAR
STARTCHAR _
ENCODING 95
SWIDTH 500 0
DWIDTH 8 0
BBX 8 16 0 -3
BITMAP
00
00
00
00
00
00
00
00
00
00
00
00
00
7f
00
00
ENDCHAR
STARTCHAR `
ENCODING 96
SWIDTH 500 0
DWIDTH 8 0
BBX 8 16 0 -3
BITMAP
00
18
10
10
08
00
00
00
00
00
00
00
00
00
00
00
ENDCHAR
STARTCHAR a
ENCODING 97
SWIDTH 500 0
DWIDTH 8 0
BBX 8 16 0 -3
BITMAP
00
00
00
00
00
3c
42
02
3e
42
42
46
3a
00
00
00
ENDCHAR
STARTCHAR b
ENCODING 98
SWIDTH 500 0
DWIDTH 8 0
BBX 8 16 0 -3
BITMAP
00
00
40
40
40
5c
62
42
42
42
42
62
5c
00
00
00
ENDCHAR
STARTCHAR c
ENCODING 99
SWIDTH 500 0
DWIDTH 8 0
BBX 8 16 0 -3
BITMAP
00
00
00
00
00
3c
42
40
40
40
40
42
3c
00
00
00
ENDCHAR
STARTCHAR d
ENCODING 100
SWIDTH 500 0
DWIDTH 8 0
BBX 8 16 0 -3
BITMAP
00
00
02
02
02
3a
46
42
42
42
42
46
3a
00
00
00
ENDCHAR
STARTCHAR e
ENCODING 101
SWIDTH 500 0
DWIDTH 8 0
BBX 8 16 0 -3
BITMAP
00
00
00
00
00
3c
42
42
7e
40
40
42
3c
00
00
00
ENDCHAR
STARTCHAR f
ENCODING 102
SWIDTH 500 0
DWIDTH 8 0
BBX 8 16 0 -3
BITMAP
00
00
0c
10
10
10
7c
10
10
10
10
10
10
00
00
00
ENDCHAR
STARTCHAR g
ENCODING 103
SWIDTH 500 0
DWIDTH 8 0
BBX 8 16 0 -3
BITMAP
00
00
00
00
02
3a
44
44
44
38
20
3c
42
42
3c
00
ENDCHAR
STARTCHAR h
ENCODING 104
SWIDTH 500 0
DWIDTH 8 0
BBX 8 16 0 -3
BITMAP
00
00
40
40
40
5c
62
42
42
42
42
42
42
00
00
00
ENDCHAR
STARTCHAR i
ENCODING 105
SWIDTH 500 0
DWIDTH 8 0
BBX 8 16 0 -3
BITMAP
00
00
08
08
00
18
08
08
08
08
08
08
3e
00
00
00
ENDCHAR
STARTCHAR j
ENCODING 106
SWIDTH 500 0
DWIDTH 8 0
BBX 8 16 0 -3
BITMAP
00
00
04
04
00
0c
04
04
04
04
04
04
04
48
30
00
ENDCHAR
STARTCHAR k
ENCODING 107
SWIDTH 500 0
DWIDTH 8 0
BBX 8 16 0 -3
BITMAP
00
00
00
40
40
44
48
50
60
50
48
44
42
00
00
00
ENDCHAR
STARTCHAR l
ENCODING 108
SWIDTH 500 0
DWIDTH 8 0
BBX 8 16 0 -3
BITMAP
00
00
00
18
08
08
08
08
08
08
08
08
3e
00
00
00
ENDCHAR
STARTCHAR m
ENCODING 109
SWIDTH 500 0
DWIDTH 8 0
BBX 8 16 0 -3
BITMAP
00
00
00
00
00
76
49
49
49
49
49
49
49
00
00
00
ENDCHAR
STARTCHAR n
ENCODING 110
SWIDTH 500 0
DWIDTH 8 0
BBX 8 16 0 -3
BITMAP
00
00
00
00
00
5c
62
42
42
42
42
42
42
00
00
00
ENDCHAR
STARTCHAR o
ENCODING 111
SWIDTH 500 0
DWIDTH 8 0
BBX 8 16 0 -3
BITMAP
00
00
00
00
00
3c
42
42
42
42
42
42
3c
00
00
00
ENDCHAR
STARTCHAR p
ENCODING 112
SWIDTH 500 0
DWIDTH 8 0
BBX 8 16 0 -3
BITMAP
00
00
00
00
00
5c
62
42
42
42
42
62
5c
40
40
00
ENDCHAR
STARTCHAR q
ENCODING 113
SWIDTH 500 0
DWIDTH 8 0
BBX 8 16 0 -3
BITMAP
00
00
00
00
00
3a
46
42
42
42
42
46
3a
02
02
00
ENDCHAR
STARTCHAR r
ENCODING 114
SWIDTH 500 0
DWIDTH 8 0
BBX 8 16 0 -3
BITMAP
00
00
00
00
00
5c
62
42
40
40
40
40
40
00
00
00
ENDCHAR
STARTCHAR s
ENCODING 115
SWIDTH 500 0
DWIDTH 8 0
BBX 8 16 0 -3
BITMAP
00
00
00
00
00
3c
42
40
30
0c
02
42
3c
00
00
00
ENDCHAR
STARTCHAR t
ENCODING 116
SWIDTH 500 0
DWIDTH 8 0
BBX 8 16 0 -3
BITMAP
00
00
00
10
10
7c
10
10
10
10
10
10
0c
00
00
00
ENDCHAR
STARTCHAR u
ENCODING 117
SWIDTH 500 0
DWIDTH 8 0
BBX 8 16 0 -3
BITMAP
00
00
00
00
00
42
42
42
42
42
42
46
3a
00
00
00
ENDCHAR
STARTCHAR v
ENCODING 118
SWIDTH 500 0
DWIDTH 8 0
BBX 8 16 0 -3
BITMAP
00
00
00
00
00
42
42
42
24
24
24
18
18
00
00
00
ENDCHAR
STARTCHAR w
ENCODING 119
SWIDTH 500 0
DWIDTH 8 0
BBX 8 16 0 -3
BITMAP
00
00
00
00
00
41
49
49
49
49
49
49
36
00
00
00
ENDCHAR
STARTCHAR x
ENCODING 120
SWIDTH 500 0
DWIDTH 8 0
BBX 8 16 0 -3
BITMAP
00
00
00
00
00
42
42
24
18
18
24
42
42
00
00
00
ENDCHAR
STARTCHAR y
ENCODING 121
SWIDTH 500 0
DWIDTH 8 0
BBX 8 16 0 -3
BITMAP
00
00
00
00
00
42
42
42
42
42
26
1a
02
02
3c
00
ENDCHAR
STARTCHAR z
ENCODING 122
SWIDTH 500 0
DWIDTH 8 0
BBX 8 16 0 -3
BITMAP
00
00
00
00
00
7e
02
04
08
10
20
40
7e
00
00
00
ENDCHAR
STARTCHAR {
ENCODING 123
SWIDTH 500 0
DWIDTH 8 0
BBX 8 16 0 -3
BITMAP
00
00
0c
10
10
08
08
10
10
08
08
10
10
0c
00
00
ENDCHAR
STARTCHAR |
ENCODING 124
SWIDTH 500 0
DWIDTH 8 0
BBX 8 16 0 -3
BITMAP
00
08
08
08
08
08
08
08
08
08
08
08
08
08
08
00
ENDCHAR
STARTCHAR }
ENCODING 125
SWIDTH 500 0
DWIDTH 8 0
BBX 8 16 0 -3
BITMAP
00
00
30
08
08
10
10
08
08
10
10
08
08
30
00
00
ENDCHAR
STARTCHAR ~
ENCODING 126
SWIDTH 500 0
DWIDTH 8 0
BBX 8 16 0 -3
BITMAP
00
00
31
49
46
00
00
00
00
00
00
00
00
00
00
00
ENDCHAR
STARTCHAR (null)
ENCODING 160
SWIDTH 500 0
DWIDTH 8 0
BBX 8 16 0 -3
BITMAP
00
00
00
00
00
00
00
00
00
00
00
00
00
00
00
00
ENDCHAR
STARTCHAR LAO LETTER KO_KAI' (CHICKEN)
ENCODING 161
SWIDTH 500 0
DWIDTH 8 0
BBX 8 16 0 -3
BITMAP
00
00
00
00
00
5c
22
22
22
22
22
22
62
00
00
00
ENDCHAR
STARTCHAR LAO LETTER KHO_KHAI' (EGG)
ENCODING 162
SWIDTH 500 0
DWIDTH 8 0
BBX 8 16 0 -3
BITMAP
00
00
00
00
00
3c
42
04
18
20
4c
52
22
00
00
00
ENDCHAR
STARTCHAR (null)
ENCODING 163
SWIDTH 500 0
DWIDTH 8 0
BBX 8 16 0 -3
BITMAP
00
00
00
00
00
00
00
00
00
00
00
00
00
00
00
00
ENDCHAR
STARTCHAR LAO LETTER QHO_QHWARY (BAFFALO)
ENCODING 164
SWIDTH 500 0
DWIDTH 8 0
BBX 8 16 0 -3
BITMAP
00
00
00
00
00
3c
42
42
32
42
42
42
32
00
00
00
ENDCHAR
STARTCHAR (null)
ENCODING 165
SWIDTH 500 0
DWIDTH 8 0
BBX 8 16 0 -3
BITMAP
00
00
00
00
00
00
00
00
00
00
00
00
00
00
00
00
ENDCHAR
STARTCHAR (null)
ENCODING 166
SWIDTH 500 0
DWIDTH 8 0
BBX 8 16 0 -3
BITMAP
00
00
00
00
00
00
00
00
00
00
00
00
00
00
00
00
ENDCHAR
STARTCHAR LAO LETTER NGO_NGUU (SNAKE)
ENCODING 167
SWIDTH 500 0
DWIDTH 8 0
BBX 8 16 0 -3
BITMAP
00
00
00
00
00
18
2c
14
04
04
04
04
64
44
44
38
ENDCHAR
STARTCHAR LAO LETTER JO_JOW (NOVICE)
ENCODING 168
SWIDTH 500 0
DWIDTH 8 0
BBX 8 16 0 -3
BITMAP
00
00
00
00
00
3c
42
02
1a
26
02
02
02
00
00
00
ENDCHAR
STARTCHAR (null)
ENCODING 169
SWIDTH 500 0
DWIDTH 8 0
BBX 8 16 0 -3
BITMAP
00
00
00
00
00
00
00
00
00
00
00
00
00
00
00
00
ENDCHAR
STARTCHAR LAO LETTER XO_XARNG" (ELEPHANT)
ENCODING 170
SWIDTH 500 0
DWIDTH 8 0
BBX 8 16 0 -3
BITMAP
00
00
00
00
00
3c
42
64
08
10
20
4c
72
02
02
02
ENDCHAR
STARTCHAR (null)
ENCODING 171
SWIDTH 500 0
DWIDTH 8 0
BBX 8 16 0 -3
BITMAP
00
00
00
00
00
00
00
00
00
00
00
00
00
00
00
00
ENDCHAR
STARTCHAR (null)
ENCODING 172
SWIDTH 500 0
DWIDTH 8 0
BBX 8 16 0 -3
BITMAP
00
00
00
00
00
00
00
00
00
00
00
00
00
00
00
00
ENDCHAR
STARTCHAR LAO LETTER YO_YUNG (MOSQUITO)
ENCODING 173
SWIDTH 500 0
DWIDTH 8 0
BBX 8 16 0 -3
BITMAP
00
00
00
00
00
32
42
42
32
42
42
42
3c
00
00
00
ENDCHAR
STARTCHAR (null)
ENCODING 174
SWIDTH 500 0
DWIDTH 8 0
BBX 8 16 0 -3
BITMAP
00
00
00
00
00
00
00
00
00
00
00
00
00
00
00
00
ENDCHAR
STARTCHAR (null)
ENCODING 175
SWIDTH 500 0
DWIDTH 8 0
BBX 8 16 0 -3
BITMAP
00
00
00
00
00
00
00
00
00
00
00
00
00
00
00
00
ENDCHAR
STARTCHAR (null)
ENCODING 176
SWIDTH 500 0
DWIDTH 8 0
BBX 8 16 0 -3
BITMAP
00
00
00
00
00
00
00
00
00
00
00
00
00
00
00
00
ENDCHAR
STARTCHAR (null)
ENCODING 177
SWIDTH 500 0
DWIDTH 8 0
BBX 8 16 0 -3
BITMAP
00
00
00
00
00
00
00
00
00
00
00
00
00
00
00
00
ENDCHAR
STARTCHAR (null)
ENCODING 178
SWIDTH 500 0
DWIDTH 8 0
BBX 8 16 0 -3
BITMAP
00
00
00
00
00
00
00
00
00
00
00
00
00
00
00
00
ENDCHAR
STARTCHAR (null)
ENCODING 179
SWIDTH 500 0
DWIDTH 8 0
BBX 8 16 0 -3
BITMAP
00
00
00
00
00
00
00
00
00
00
00
00
00
00
00
00
ENDCHAR
STARTCHAR LAO LETTER DO_DEK (CHILD)
ENCODING 180
SWIDTH 500 0
DWIDTH 8 0
BBX 8 16 0 -3
BITMAP
00
00
00
00
00
3c
42
42
42
42
42
52
22
00
00
00
ENDCHAR
STARTCHAR LAO LETTER TO_TAR (EYE)
ENCODING 181
SWIDTH 500 0
DWIDTH 8 0
BBX 8 16 0 -3
BITMAP
00
00
00
00
00
24
5a
42
42
42
42
42
22
00
00
00
ENDCHAR
STARTCHAR LAO LETTER THO_THOW (OLD)
ENCODING 182
SWIDTH 500 0
DWIDTH 8 0
BBX 8 16 0 -3
BITMAP
00
00
00
00
00
5c
22
22
22
22
22
22
32
02
02
02
ENDCHAR
STARTCHAR LAO LETTER DHO_DHUUNG (FLAG)
ENCODING 183
SWIDTH 500 0
DWIDTH 8 0
BBX 8 16 0 -3
BITMAP
00
00
00
00
00
8c
52
52
52
52
52
52
22
00
00
00
ENDCHAR
STARTCHAR (null)
ENCODING 184
SWIDTH 500 0
DWIDTH 8 0
BBX 8 16 0 -3
BITMAP
00
00
00
00
00
00
00
00
00
00
00
00
00
00
00
00
ENDCHAR
STARTCHAR LAO LETTER NO_NOK (BIRD)
ENCODING 185
SWIDTH 500 0
DWIDTH 8 0
BBX 8 16 0 -3
BITMAP
00
00
00
00
00
22
52
22
22
22
22
22
5c
00
00
00
ENDCHAR
STARTCHAR LAO LETTER BO_BED (FISHHOOK)
ENCODING 186
SWIDTH 500 0
DWIDTH 8 0
BBX 8 16 0 -3
BITMAP
00
00
00
00
00
22
52
22
42
42
42
42
3c
00
00
00
ENDCHAR
STARTCHAR LAO LETTER PO_PAR (FISH)
ENCODING 187
SWIDTH 500 0
DWIDTH 8 0
BBX 8 16 0 -3
BITMAP
00
02
02
02
02
22
52
22
42
42
42
42
3c
00
00
00
ENDCHAR
STARTCHAR LAO LETTER HPO_HPIRNG" (BEE)
ENCODING 188
SWIDTH 500 0
DWIDTH 8 0
BBX 8 16 0 -3
BITMAP
00
00
00
00
01
66
86
82
82
82
92
92
6c
00
00
00
ENDCHAR
STARTCHAR LAO LETTER FHO_FHAR (WALL)
ENCODING 189
SWIDTH 500 0
DWIDTH 8 0
BBX 8 16 0 -3
BITMAP
00
02
02
02
02
62
82
82
82
82
92
92
6c
00
00
00
ENDCHAR
STARTCHAR LAO LETTER PHO_PHUU (MOUNTAIN)
ENCODING 190
SWIDTH 500 0
DWIDTH 8 0
BBX 8 16 0 -3
BITMAP
00
00
00
00
00
42
a2
42
82
82
92
92
6c
00
00
00
ENDCHAR
STARTCHAR LAO LETTER FO_FAI (FIRE)
ENCODING 191
SWIDTH 500 0
DWIDTH 8 0
BBX 8 16 0 -3
BITMAP
00
02
02
02
02
42
a2
42
82
82
92
92
6c
00
00
00
ENDCHAR
STARTCHAR (null)
ENCODING 192
SWIDTH 500 0
DWIDTH 8 0
BBX 8 16 0 -3
BITMAP
00
00
00
00
00
00
00
00
00
00
00
00
00
00
00
00
ENDCHAR
STARTCHAR LAO LETTER MO_MAR" (HORSE)
ENCODING 193
SWIDTH 500 0
DWIDTH 8 0
BBX 8 16 0 -3
BITMAP
00
00
00
00
00
22
22
22
22
22
22
22
5c
00
00
00
ENDCHAR
STARTCHAR LAO LETTER GNO_GNAR (MEDICINE)
ENCODING 194
SWIDTH 500 0
DWIDTH 8 0
BBX 8 16 0 -3
BITMAP
00
02
02
02
02
32
42
42
22
42
42
42
3c
00
00
00
ENDCHAR
STARTCHAR LAO LETTER RO_ROD (CAR)
ENCODING 195
SWIDTH 500 0
DWIDTH 8 0
BBX 8 16 0 -3
BITMAP
00
00
00
00
00
3c
42
40
3c
02
62
42
3c
00
00
00
ENDCHAR
STARTCHAR (null)
ENCODING 196
SWIDTH 500 0
DWIDTH 8 0
BBX 8 16 0 -3
BITMAP
00
00
00
00
00
00
00
00
00
00
00
00
00
00
00
00
ENDCHAR
STARTCHAR LAO LETTER LO_LIING (MONKEY)
ENCODING 197
SWIDTH 500 0
DWIDTH 8 0
BBX 8 16 0 -3
BITMAP
00
00
00
00
00
3c
42
02
02
02
32
4a
24
00
00
00
ENDCHAR
STARTCHAR (null)
ENCODING 198
SWIDTH 500 0
DWIDTH 8 0
BBX 8 16 0 -3
BITMAP
00
00
00
00
00
00
00
00
00
00
00
00
00
00
00
00
ENDCHAR
STARTCHAR LAO LETTER WO_WII (HANDFAN)
ENCODING 199
SWIDTH 500 0
DWIDTH 8 0
BBX 8 16 0 -3
BITMAP
00
00
00
00
00
3c
42
02
02
02
42
42
3c
00
00
00
ENDCHAR
STARTCHAR (null)
ENCODING 200
SWIDTH 500 0
DWIDTH 8 0
BBX 8 16 0 -3
BITMAP
00
00
00
00
00
00
00
00
00
00
00
00
00
00
00
00
ENDCHAR
STARTCHAR (null)
ENCODING 201
SWIDTH 500 0
DWIDTH 8 0
BBX 8 16 0 -3
BITMAP
00
00
00
00
00
00
00
00
00
00
00
00
00
00
00
00
ENDCHAR
STARTCHAR LAO LETTER SO_SEA (TIGER)
ENCODING 202
SWIDTH 500 0
DWIDTH 8 0
BBX 8 16 0 -3
BITMAP
00
00
00
00
00
3a
44
46
7a
02
32
4a
44
00
00
00
ENDCHAR
STARTCHAR LAO LETTER HHO_HHAI (JAR)
ENCODING 203
SWIDTH 500 0
DWIDTH 8 0
BBX 8 16 0 -3
BITMAP
00
00
00
00
00
96
49
49
49
49
49
49
31
00
00
00
ENDCHAR
STARTCHAR (null)
ENCODING 204
SWIDTH 500 0
DWIDTH 8 0
BBX 8 16 0 -3
BITMAP
00
00
00
00
00
00
00
00
00
00
00
00
00
00
00
00
ENDCHAR
STARTCHAR LAO LETTER O_OW (TAKE)
ENCODING 205
SWIDTH 500 0
DWIDTH 8 0
BBX 8 16 0 -3
BITMAP
00
00
00
00
00
3c
42
42
46
3a
02
44
38
00
00
00
ENDCHAR
STARTCHAR LAO LETTER HO_HEA (BOAT)
ENCODING 206
SWIDTH 500 0
DWIDTH 8 0
BBX 8 16 0 -3
BITMAP
00
00
00
00
00
32
4c
40
3c
02
62
42
3c
00
00
00
ENDCHAR
STARTCHAR LAO ELLIPSIS
ENCODING 207
SWIDTH 500 0
DWIDTH 8 0
BBX 8 16 0 -3
BITMAP
00
00
00
00
00
22
26
1a
02
04
04
08
08
10
10
20
ENDCHAR
STARTCHAR LAO VOWEL SARA A
ENCODING 208
SWIDTH 500 0
DWIDTH 8 0
BBX 8 16 0 -3
BITMAP
00
00
00
00
00
00
00
34
38
00
34
38
00
00
00
00
ENDCHAR
STARTCHAR LAO VOWEL MAI KAN
ENCODING 209
SWIDTH 500 0
DWIDTH 8 0
BBX 8 16 0 -3
BITMAP
61
62
7c
00
00
00
00
00
00
00
00
00
00
00
00
00
ENDCHAR
STARTCHAR LAO VOWEL SARA AR
ENCODING 210
SWIDTH 500 0
DWIDTH 8 0
BBX 8 16 0 -3
BITMAP
00
00
00
00
00
18
24
14
04
04
04
04
04
00
00
00
ENDCHAR
STARTCHAR LAO VOWEL SARA AM
ENCODING 211
SWIDTH 500 0
DWIDTH 8 0
BBX 8 16 0 -3
BITMAP
00
00
c0
c0
00
0c
12
0a
02
02
02
02
02
00
00
00
ENDCHAR
STARTCHAR LAO VOWEL SARA I
ENCODING 212
SWIDTH 500 0
DWIDTH 8 0
BBX 8 16 0 -3
BITMAP
7c
44
28
00
00
00
00
00
00
00
00
00
00
00
00
00
ENDCHAR
STARTCHAR LAO VOWEL SARA II
ENCODING 213
SWIDTH 500 0
DWIDTH 8 0
BBX 8 16 0 -3
BITMAP
7c
44
2e
00
00
00
00
00
00
00
00
00
00
00
00
00
ENDCHAR
STARTCHAR LAO VOWEL SARA EU
ENCODING 214
SWIDTH 500 0
DWIDTH 8 0
BBX 8 16 0 -3
BITMAP
7c
54
28
00
00
00
00
00
00
00
00
00
00
00
00
00
ENDCHAR
STARTCHAR LAO VOWEL SARA UR
ENCODING 215
SWIDTH 500 0
DWIDTH 8 0
BBX 8 16 0 -3
BITMAP
7c
54
2e
00
00
00
00
00
00
00
00
00
00
00
00
00
ENDCHAR
STARTCHAR LAO VOWEL SARA U
ENCODING 216
SWIDTH 500 0
DWIDTH 8 0
BBX 8 16 0 -3
BITMAP
00
00
00
00
00
00
00
00
00
00
00
00
00
00
18
08
ENDCHAR
STARTCHAR LAO VOWEL SARA UU
ENCODING 217
SWIDTH 500 0
DWIDTH 8 0
BBX 8 16 0 -3
BITMAP
00
00
00
00
00
00
00
00
00
00
00
00
00
00
1a
0c
ENDCHAR
STARTCHAR (null)
ENCODING 218
SWIDTH 500 0
DWIDTH 8 0
BBX 8 16 0 -3
BITMAP
00
00
00
00
00
00
00
00
00
00
00
00
00
00
00
00
ENDCHAR
STARTCHAR LAO VOWEL MAI KON
ENCODING 219
SWIDTH 500 0
DWIDTH 8 0
BBX 8 16 0 -3
BITMAP
3e
61
60
00
00
00
00
00
00
00
00
00
00
00
00
00
ENDCHAR
STARTCHAR LAO SEMIVOWEL LO HHORNG" KON"
ENCODING 220
SWIDTH 500 0
DWIDTH 8 0
BBX 8 16 0 -3
BITMAP
00
00
00
00
00
00
00
00
00
00
00
00
00
00
32
4c
ENDCHAR
STARTCHAR LAO SEMIVOWEL SIGN NYO
ENCODING 221
SWIDTH 500 0
DWIDTH 8 0
BBX 8 16 0 -3
BITMAP
00
00
00
00
00
3a
24
18
04
04
04
04
64
44
44
38
ENDCHAR
STARTCHAR (null)
ENCODING 222
SWIDTH 500 0
DWIDTH 8 0
BBX 8 16 0 -3
BITMAP
00
00
00
00
00
00
00
00
00
00
00
00
00
00
00
00
ENDCHAR
STARTCHAR (null)
ENCODING 223
SWIDTH 500 0
DWIDTH 8 0
BBX 8 16 0 -3
BITMAP
00
00
00
00
00
00
00
00
00
00
00
00
00
00
00
00
ENDCHAR
STARTCHAR LAO VOWEL SARA EE
ENCODING 224
SWIDTH 500 0
DWIDTH 8 0
BBX 8 16 0 -3
BITMAP
00
00
00
00
00
08
08
08
08
08
08
0c
0c
00
00
00
ENDCHAR
STARTCHAR LAO VOWEL SARA AA
ENCODING 225
SWIDTH 500 0
DWIDTH 8 0
BBX 8 16 0 -3
BITMAP
00
00
00
00
00
24
24
24
24
24
24
36
36
00
00
00
ENDCHAR
STARTCHAR LAO VOWEL SARA OO
ENCODING 226
SWIDTH 500 0
DWIDTH 8 0
BBX 8 16 0 -3
BITMAP
00
30
4c
22
18
04
04
04
04
04
04
06
06
00
00
00
ENDCHAR
STARTCHAR LAO VOWEL SARA AI MAI MUAN"
ENCODING 227
SWIDTH 500 0
DWIDTH 8 0
BBX 8 16 0 -3
BITMAP
00
38
44
54
34
04
04
04
04
04
04
06
06
00
00
00
ENDCHAR
STARTCHAR LAO VOWEL SARA AI MAI MARY
ENCODING 228
SWIDTH 500 0
DWIDTH 8 0
BBX 8 16 0 -3
BITMAP
00
80
4c
34
04
04
04
04
04
04
04
06
06
00
00
00
ENDCHAR
STARTCHAR (null)
ENCODING 229
SWIDTH 500 0
DWIDTH 8 0
BBX 8 16 0 -3
BITMAP
00
00
00
00
00
00
00
00
00
00
00
00
00
00
00
00
ENDCHAR
STARTCHAR LAO KOLA REPETITION
ENCODING 230
SWIDTH 500 0
DWIDTH 8 0
BBX 8 16 0 -3
BITMAP
00
00
00
00
00
6c
52
52
22
02
02
02
02
02
04
08
ENDCHAR
STARTCHAR (null)
ENCODING 231
SWIDTH 500 0
DWIDTH 8 0
BBX 8 16 0 -3
BITMAP
00
00
00
00
00
00
00
00
00
00
00
00
00
00
00
00
ENDCHAR
STARTCHAR LAO TONE MAI EK
ENCODING 232
SWIDTH 500 0
DWIDTH 8 0
BBX 8 16 0 -3
BITMAP
10
10
10
00
00
00
00
00
00
00
00
00
00
00
00
00
ENDCHAR
STARTCHAR LAO TONE MAI THO
ENCODING 233
SWIDTH 500 0
DWIDTH 8 0
BBX 8 16 0 -3
BITMAP
32
14
38
00
00
00
00
00
00
00
00
00
00
00
00
00
ENDCHAR
STARTCHAR LAO TONE MAI TI
ENCODING 234
SWIDTH 500 0
DWIDTH 8 0
BBX 8 16 0 -3
BITMAP
28
55
66
00
00
00
00
00
00
00
00
00
00
00
00
00
ENDCHAR
STARTCHAR LAO TONE MAI JADTAWAR
ENCODING 235
SWIDTH 500 0
DWIDTH 8 0
BBX 8 16 0 -3
BITMAP
08
1c
08
00
00
00
00
00
00
00
00
00
00
00
00
00
ENDCHAR
STARTCHAR LAO CANCELLATION MARK
ENCODING 236
SWIDTH 500 0
DWIDTH 8 0
BBX 8 16 0 -3
BITMAP
02
1c
18
00
00
00
00
00
00
00
00
00
00
00
00
00
ENDCHAR
STARTCHAR LAO NIGGAHITA FINAL NASAL
ENCODING 237
SWIDTH 500 0
DWIDTH 8 0
BBX 8 16 0 -3
BITMAP
00
00
08
14
08
00
00
00
00
00
00
00
00
00
00
00
ENDCHAR
STARTCHAR (null)
ENCODING 238
SWIDTH 500 0
DWIDTH 8 0
BBX 8 16 0 -3
BITMAP
00
00
00
00
00
00
00
00
00
00
00
00
00
00
00
00
ENDCHAR
STARTCHAR (null)
ENCODING 239
SWIDTH 500 0
DWIDTH 8 0
BBX 8 16 0 -3
BITMAP
00
00
00
00
00
00
00
00
00
00
00
00
00
00
00
00
ENDCHAR
STARTCHAR LAO DIGIT ZERO
ENCODING 240
SWIDTH 500 0
DWIDTH 8 0
BBX 8 16 0 -3
BITMAP
00
00
00
00
00
00
3c
42
42
42
42
42
3c
00
00
00
ENDCHAR
STARTCHAR LAO DIGIT ONE
ENCODING 241
SWIDTH 500 0
DWIDTH 8 0
BBX 8 16 0 -3
BITMAP
00
00
00
00
00
00
3c
42
42
5a
3a
02
3c
00
00
00
ENDCHAR
STARTCHAR LAO DIGIT TWO
ENCODING 242
SWIDTH 500 0
DWIDTH 8 0
BBX 8 16 0 -3
BITMAP
00
00
00
00
00
00
38
44
40
5c
5c
44
38
00
00
00
ENDCHAR
STARTCHAR LAO DIGIT THREE
ENCODING 243
SWIDTH 500 0
DWIDTH 8 0
BBX 8 16 0 -3
BITMAP
00
00
00
08
14
0a
44
22
22
22
22
22
5c
00
00
00
ENDCHAR
STARTCHAR LAO DIGIT FOUR
ENCODING 244
SWIDTH 500 0
DWIDTH 8 0
BBX 8 16 0 -3
BITMAP
00
00
00
00
02
02
3c
40
40
4c
4c
48
3e
00
00
00
ENDCHAR
STARTCHAR LAO DIGIT FIVE
ENCODING 245
SWIDTH 500 0
DWIDTH 8 0
BBX 8 16 0 -3
BITMAP
00
00
00
00
02
1a
3c
40
40
4c
4c
48
3e
00
00
00
ENDCHAR
STARTCHAR LAO DIGIT SIX
ENCODING 246
SWIDTH 500 0
DWIDTH 8 0
BBX 8 16 0 -3
BITMAP
00
00
00
08
14
0a
24
42
42
42
52
52
2c
00
00
00
ENDCHAR
STARTCHAR LAO DIGIT SEVEN
ENCODING 247
SWIDTH 500 0
DWIDTH 8 0
BBX 8 16 0 -3
BITMAP
00
00
00
00
00
00
5c
22
22
22
22
22
62
02
02
02
ENDCHAR
STARTCHAR LAO DIGIT EIGHT
ENCODING 248
SWIDTH 500 0
DWIDTH 8 0
BBX 8 16 0 -3
BITMAP
00
00
00
00
00
00
2c
52
52
42
42
26
0a
14
2c
30
ENDCHAR
STARTCHAR LAO DIGIT NINE
ENCODING 249
SWIDTH 500 0
DWIDTH 8 0
BBX 8 16 0 -3
BITMAP
00
00
00
00
00
00
32
4a
4a
4a
4a
4a
24
00
00
00
ENDCHAR
STARTCHAR (null)
ENCODING 250
SWIDTH 500 0
DWIDTH 8 0
BBX 8 16 0 -3
BITMAP
00
00
00
00
00
00
00
00
00
00
00
00
00
00
00
00
ENDCHAR
STARTCHAR (null)
ENCODING 251
SWIDTH 500 0
DWIDTH 8 0
BBX 8 16 0 -3
BITMAP
00
00
00
00
00
00
00
00
00
00
00
00
00
00
00
00
ENDCHAR
STARTCHAR LAO LETTER NHO_NHUU (MOUSE,RAT)
ENCODING 252
SWIDTH 500 0
DWIDTH 8 0
BBX 8 16 0 -3
BITMAP
00
00
00
00
b9
d5
55
55
55
55
55
55
26
00
00
00
ENDCHAR
STARTCHAR LAO LETTER MHO_MHAR (DOG)
ENCODING 253
SWIDTH 500 0
DWIDTH 8 0
BBX 8 16 0 -3
BITMAP
00
00
00
00
89
d5
55
55
55
55
55
5d
2e
00
00
00
ENDCHAR
STARTCHAR (null)
ENCODING 254
SWIDTH 500 0
DWIDTH 8 0
BBX 8 16 0 -3
BITMAP
00
00
00
00
00
00
00
00
00
00
00
00
00
00
00
00
ENDCHAR
STARTCHAR (null)
ENCODING 255
SWIDTH 500 0
DWIDTH 8 0
BBX 8 16 0 -3
BITMAP
00
00
00
00
00
00
00
00
00
00
00
00
00
00
00
00
ENDCHAR
ENDFONT
